<svg xmlns="http://www.w3.org/2000/svg" viewBox="0 0 524.35 78.2"><defs><style>.cls-1{fill:#fff;}</style></defs><g id="Camada_2" data-name="Camada 2"><g id="Camada_1-2" data-name="Camada 1"><path class="cls-1" d="M157.28,57.28l-5.5-5.5V15.21a2.84,2.84,0,0,0-2.84-2.83h-5.13A2.84,2.84,0,0,0,141,15.21v11.6a19.32,19.32,0,0,0-9.58-2.53,20.48,20.48,0,1,0-.12,41A20.64,20.64,0,0,0,145,60l4.79,4.78a2.83,2.83,0,0,0,4,0l3.5-3.49A2.85,2.85,0,0,0,157.28,57.28Zm-26-2.85a9.67,9.67,0,0,1,0-19.34,9.67,9.67,0,1,1,0,19.34Z"/><path class="cls-1" d="M160.25,23.58l3.5-3.5a2.82,2.82,0,0,1,4,0l4.86,4.85a20.37,20.37,0,0,1,12.94-5.23,1.82,1.82,0,0,1,1.24.46h0a1.64,1.64,0,0,1,.55,1.23v7.9a1.57,1.57,0,0,1-1.29,1.2,9.44,9.44,0,0,0-9.52,9.64v16A2.83,2.83,0,0,1,173.72,59h-5.14a2.84,2.84,0,0,1-2.83-2.84V33.09l-5.5-5.51A2.82,2.82,0,0,1,160.25,23.58Z"/><path class="cls-1" d="M294.94,23.58l3.49-3.5a2.83,2.83,0,0,1,4,0l4.86,4.85a20.35,20.35,0,0,1,12.94-5.23,1.83,1.83,0,0,1,1.24.46h0a1.65,1.65,0,0,1,.56,1.23v7.9a1.57,1.57,0,0,1-1.29,1.2,9.44,9.44,0,0,0-9.52,9.64v16A2.84,2.84,0,0,1,308.41,59h-5.14a2.84,2.84,0,0,1-2.83-2.84V33.09l-5.5-5.51A2.82,2.82,0,0,1,294.94,23.58Z"/><path class="cls-1" d="M227.54,22.12a20.45,20.45,0,0,0-19.42,4.43l-4.86-4.86a2.85,2.85,0,0,0-4,0l-3.49,3.5a2.83,2.83,0,0,0,0,4l5.5,5.5V68.61a2.84,2.84,0,0,0,2.83,2.84h5.14a2.84,2.84,0,0,0,2.83-2.84V59.74a19.33,19.33,0,0,0,9.71,2.52,20.48,20.48,0,0,0,5.77-40.14Zm-4.81,29.29A9.66,9.66,0,0,1,212.09,41a9.71,9.71,0,1,1,10.64,10.39Z"/><path class="cls-1" d="M290,39.35a20.46,20.46,0,0,0-20.1-20.44c-11.47-.22-20.85,9.5-20.85,21v4.91a20.44,20.44,0,0,0,20.44,20.44h0a1.61,1.61,0,0,0,1.62-1.61V56.11a1.62,1.62,0,0,0-1.62-1.62h0A9.76,9.76,0,0,1,260,46.41h27.19A2.84,2.84,0,0,0,290,43.57ZM260.65,35.6a9.72,9.72,0,0,1,8.93-6A9.51,9.51,0,0,1,277,33.28a1.42,1.42,0,0,1-1.1,2.32Z"/><path class="cls-1" d="M355,17.49c-5.52,0-9.74,4-9.74,9.19V51.52c0,11.33-9.51,19.93-20.51,19.93h0a1.62,1.62,0,0,1-1.62-1.62v-7.5a1.62,1.62,0,0,1,1.58-1.62c5.52,0,9.74-4,9.74-9.19V26.68c0-11.32,9.51-19.93,20.51-19.93h0a1.62,1.62,0,0,1,1.62,1.62v7.51A1.61,1.61,0,0,1,355,17.49Z"/><path class="cls-1" d="M375.36,24.28a20.48,20.48,0,1,0,20.51,20.51A20.46,20.46,0,0,0,375.36,24.28Zm0,30.15a9.68,9.68,0,0,1,0-19.35,9.68,9.68,0,1,1,0,19.35Z"/><path class="cls-1" d="M436.72,65.2l-22-26.49V56.19A2.84,2.84,0,0,1,411.92,59h-5.13A2.84,2.84,0,0,1,404,56.19V16.94a2.84,2.84,0,0,1,5-1.81l22,26.5V24.14a2.84,2.84,0,0,1,2.84-2.83h5.13a2.84,2.84,0,0,1,2.84,2.83V63.4A2.83,2.83,0,0,1,436.72,65.2Z"/><path class="cls-1" d="M480,19.54v3.51a19.29,19.29,0,0,0-9.51-2.52,20.48,20.48,0,1,0-.19,40.95A19.4,19.4,0,0,0,480,59V62.4a2.84,2.84,0,0,0,2.84,2.83h5.13a2.84,2.84,0,0,0,2.84-2.83V19.54a2.84,2.84,0,0,0-2.84-2.83h-5.13A2.84,2.84,0,0,0,480,19.54Zm-8.81,31.1a9.68,9.68,0,1,1,8.77-8.71A9.71,9.71,0,0,1,471.16,50.64Z"/><path class="cls-1" d="M510.9,48.22h10.62a2.84,2.84,0,0,1,2.83,2.84v5.13A2.84,2.84,0,0,1,521.52,59H502.93a2.84,2.84,0,0,1-2.84-2.84V10.62a2.84,2.84,0,0,1,2.84-2.83h5.13a2.84,2.84,0,0,1,2.84,2.83Z"/><path class="cls-1" d="M97.34,43.8,40.49,56.34a.46.46,0,0,0-.25.75L57.69,77.44a.46.46,0,0,1-.59.69L.23,44a.46.46,0,0,1,.23-.86l96.78-.2A.46.46,0,0,1,97.34,43.8Z"/><path class="cls-1" d="M.36,34.4,57.21,21.86a.46.46,0,0,0,.26-.75L40,.77a.46.46,0,0,1,.59-.7L97.48,34.26a.46.46,0,0,1-.24.86l-96.78.2A.47.47,0,0,1,.36,34.4Z"/></g></g></svg>